# xmcd CD database file
#
# Track frame offsets:
#	150
#	3888
#	19631
#	30658
#	48246
#	59408
#	70664
#	72917
#	83090
#	94900
#	107766
#	118353
#	134469
#	149932
#	165786
#	176287
#
# Disc length: 2390 seconds
#
# Revision: 0
# Processed by: cddbd v1.4PL0 Copyright (c) Steve Scherf et al.
# Submitted via: CDex 1.51
#
DISCID=d5095410
DTITLE=Tom Leach - Tom Leach
DYEAR=1997
DGENRE=Country
TTITLE0=Guitar
TTITLE1=Confidence
TTITLE2=Doris Days
TTITLE3=Yesterday's News
TTITLE4=Hello Friend
TTITLE5=Ice Below You
TTITLE6=Guitar
TTITLE7=Saviour
TTITLE8=Rain
TTITLE9=Mr. Hang Up The Phone
TTITLE10=Wine Cigarettes And Tears
TTITLE11=If I Were You
TTITLE12=She's Coming Of Age
TTITLE13=Send In The Blues
TTITLE14=Tomorrow Comes
TTITLE15=Guitar
EXTD=YEAR: 1997
EXTT0=
EXTT1=
EXTT2=
EXTT3=
EXTT4=
EXTT5=
EXTT6=
EXTT7=
EXTT8=
EXTT9=
EXTT10=
EXTT11=
EXTT12=
EXTT13=
EXTT14=
EXTT15=
PLAYORDER=
